#!OML:ASF I:\golf\golf\golf 2\Subject 1\2002-09-07\Subject1.ASF
:FULLY-SPECIFIED
:DEGREES
302
root -6.14053 17.9903 0.156901 -160.146 74.9098 -176.66
lowerback -1.70197 -8.45031 2.77319
upperback 4.39845 -11.5241 8.66741
thorax 6.89553 -5.70401 6.69465
lowerneck -11.0552 4.00902 3.71278
upperneck 27.5853 9.11342 -11.9319
head 11.5567 3.42492 -3.7716
rclavicle -3.18055e-014 -6.04305e-014
rhumerus -7.41251 -6.86189 -79.9265
rradius 76.34
rwrist -50.8049
rhand -63.7754 13.1913
rfingers 7.12502
rthumb -35.7381 -13.1892
lclavicle -3.18055e-014 -6.04305e-014
lhumerus 44.8713 -61.5393 85.3824
lradius 19.0452
lwrist -8.79507
lhand -8.17872 29.2368
lfingers 7.12502
lthumb -162.263 238.448
rfemur -27.9061 -3.50493 8.57507
rtibia 32.7221
rfoot -8.36837 -18.945
rtoes 0.0820728
lfemur -31.9789 7.84209 -15.4132
ltibia 24.8362
lfoot -7.66071 -5.11563
ltoes -25.0696
303
root -6.12328 18.0157 0.0896571 -163.024 72.361 -178.951
lowerback -2.46583 -8.24534 3.00637
upperback 4.25763 -11.3013 9.25352
thorax 7.24644 -5.57606 7.12726
lowerneck -11.0396 2.89512 3.16979
upperneck 28.1909 7.79794 -11.9617
head 11.6352 2.79 -3.8857
rclavicle 1.19271e-014 3.18055e-014
rhumerus -9.1637 -5.51081 -80.9906
rradius 74.1294
rwrist -53.3821
rhand -62.897 12.7641
rfingers 7.12502
rthumb -34.9053 -13.8141
lclavicle 1.19271e-014 3.18055e-014
lhumerus 42.4499 -62.3298 85.2329
lradius 19.0787
lwrist -7.56192
lhand -7.08472 31.1381
lfingers 7.12502
lthumb -161.211 240.251
rfemur -26.3805 -3.69321 7.75686
rtibia 33.0989
rfoot -7.49963 -20.2285
rtoes -3.00037
lfemur -30.9147 6.90537 -16.0713
ltibia 23.1223
lfoot -7.28337 -7.14502
ltoes -23.7828
304
root -6.10818 18.0414 0.0242604 -164.629 69.881 -180.008
lowerback -3.40346 -7.91284 3.50902
upperback 4.15196 -10.9371 9.80451
thorax 7.65642 -5.35495 7.38312
lowerneck -10.9538 1.72729 2.71674
upperneck 28.6191 6.35309 -11.9937
head 11.6274 2.11253 -4.0247
rclavicle -2.38542e-014 -4.77083e-015
rhumerus -10.6321 -4.29675 -82.0774
rradius 71.5738
rwrist -56.0809
rhand -61.5402 11.1252
rfingers 7.12502
rthumb -33.6169 -15.7428
lclavicle -2.38542e-014 -4.77083e-015
lhumerus 39.5505 -63.04 85.6706
lradius 19.0397
lwrist -6.5748
lhand -5.68158 33.0534
lfingers 7.12502
lthumb -159.862 242.03
rfemur -24.9843 -3.84269 7.24569
rtibia 33.5196
rfoot -6.77879 -21.3038
rtoes -4.06699
lfemur -29.8113 6.08099 -16.5028
ltibia 21.2836
lfoot -6.73847 -9.15171
ltoes -22.5424
305
root -6.09339 18.065 -0.0455079 -166.278 67.428 -180.934
lowerback -4.1363 -7.65808 3.80378
upperback 4.04266 -10.6483 10.4699
thorax 8.02197 -5.18594 7.91289
lowerneck -10.7125 0.610843 2.10739
upperneck 28.8417 5.03702 -12.1741
head 11.5303 1.47156 -4.16045
rclavicle -5.08889e-014 9.70069e-014
rhumerus -11.7773 -2.42539 -82.7539
rradius 68.9117
rwrist -59.4739
rhand -60.0109 9.03984
rfingers 7.12502
rthumb -32.1622 -18.1334
lclavicle -5.08889e-014 9.70069e-014
lhumerus 35.6594 -62.9479 87.4615
lradius 18.8555
lwrist -6.28182
lhand -3.93907 35.5024
lfingers 7.12502
lthumb -158.188 244.293
rfemur -23.3786 -4.13909 6.72328
rtibia 33.9643
rfoot -7.1072 -22.0992
rtoes -0.746994
lfemur -28.342 5.17627 -16.9476
ltibia 19.4753
lfoot -6.18215 -10.9496
ltoes -21.0994
306
root -6.07994 18.0802 -0.113853 -168.698 64.8515 -182.387
lowerback -4.40782 -7.66286 3.40975
upperback 3.87216 -10.6122 11.3444
thorax 8.26801 -5.19759 9.09881
lowerneck -10.5018 -0.40214 1.23048
upperneck 29.0544 4.05373 -12.6997
head 11.4849 0.9191 -4.32995
rclavicle -1.11319e-013 1.33583e-013
rhumerus -12.5512 0.319706 -83.1635
rradius 65.9017
rwrist -62.7588
rhand -58.4507 6.40526
rfingers 7.12502
rthumb -30.6757 -21.0575
lclavicle -1.11319e-013 1.33583e-013
lhumerus 30.7227 -61.3351 90.9684
lradius 18.2883
lwrist -6.79194
lhand -1.98219 38.1051
lfingers 7.12502
lthumb -156.31 246.665
rfemur -21.3834 -4.56036 5.89814
rtibia 34.4151
rfoot -7.15718 -22.8228
rtoes 1.11017
lfemur -26.5804 4.32057 -17.7782
ltibia 17.8119
lfoot -5.92939 -12.7777
ltoes -20.8706
307
root -6.06892 18.0866 -0.181114 -170.725 62.1508 -183.407
lowerback -4.63218 -7.71925 3.236
upperback 3.69252 -10.636 12.1504
thorax 8.43042 -5.22 10.1047
lowerneck -10.4901 -1.41585 0.197661
upperneck 29.419 3.10682 -13.1141
head 11.5496 0.368937 -4.43168
rclavicle -2.38542e-014 7.63333e-014
rhumerus -12.86 3.03776 -83.8877
rradius 62.4234
rwrist -65.6474
rhand -55.5994 1.63938
rfingers 7.12502
rthumb -27.9533 -26.2996
lclavicle -2.38542e-014 7.63333e-014
lhumerus 26.913 -60.0029 93.1497
lradius 17.831
lwrist -6.46711
lhand 0.131753 40.8618
lfingers 7.12502
lthumb -154.283 249.144
rfemur -19.3149 -5.03394 5.18909
rtibia 34.8552
rfoot -7.2624 -23.5874
rtoes 2.82643
lfemur -24.8424 3.55663 -18.593
ltibia 16.2551
lfoot -5.8361 -14.6143
ltoes -21.5536
